<svg width="24" height="24" viewBox="0 0 24 24" fill="none" xmlns="http://www.w3.org/2000/svg">
<g clip-path="url(#clip0_124_52)">
<path fill-rule="evenodd" clip-rule="evenodd" d="M1.76001 0.96C1.76001 0.429806 2.18982 0 2.72001 0H4.33511C4.85955 0 5.27556 0.427277 5.40919 0.934405C6.02599 3.27502 8.77819 5.04 12.08 5.04C15.3818 5.04 18.1341 3.27502 18.7509 0.934403C18.8845 0.427275 19.3005 0 19.825 0H21.28C21.8102 0 22.24 0.429806 22.24 0.96V23.04C22.24 23.5702 21.8102 24 21.28 24H18.9395C18.9066 24 18.88 23.973 18.88 23.94C18.88 21.1234 15.8355 18.84 12.08 18.84C8.32447 18.84 5.28001 21.1234 5.28001 23.94C5.28001 23.973 5.25345 24 5.22047 24H2.72001C2.18982 24 1.76001 23.5702 1.76001 23.04V0.96Z" fill="#F4F4F5"/>
<path d="M15.2448 7.20512C15.6866 7.20512 16.0448 7.5633 16.0448 8.00512V15.84C16.0448 16.2818 15.6866 16.64 15.2448 16.64H14.5466C14.1047 16.64 13.7466 16.2818 13.7466 15.84V13.5558C13.7466 13.114 13.3884 12.7558 12.9466 12.7558H10.9715C10.5297 12.7558 10.1715 13.114 10.1715 13.5558V15.84C10.1715 16.2818 9.81336 16.64 9.37153 16.64H8.67329C8.23146 16.64 7.87329 16.2818 7.87329 15.84V8.00512C7.87329 7.5633 8.23146 7.20512 8.67329 7.20512H9.37153C9.81336 7.20512 10.1715 7.5633 10.1715 8.00512V10.1011C10.1715 10.543 10.5297 10.9011 10.9715 10.9011H12.9466C13.3884 10.9011 13.7466 10.543 13.7466 10.1011V8.00512C13.7466 7.5633 14.1047 7.20512 14.5466 7.20512H15.2448Z" fill="#242428"/>
</g>
<defs>
<clipPath id="clip0_124_52">
<rect width="20.48" height="24" fill="white" transform="translate(1.76001)"/>
</clipPath>
</defs>
</svg>
